<svg xmlns="http://www.w3.org/2000/svg" viewBox="0 0 320 520">
  <defs>
    <linearGradient id="hoodie" x1="72" y1="120" x2="248" y2="454" gradientUnits="userSpaceOnUse">
      <stop offset="0" stop-color="#fff2ed"/>
      <stop offset=".48" stop-color="#f17778"/>
      <stop offset="1" stop-color="#a92a35"/>
    </linearGradient>
    <linearGradient id="skin" x1="112" y1="52" x2="210" y2="160" gradientUnits="userSpaceOnUse">
      <stop offset="0" stop-color="#ffd9b0"/>
      <stop offset="1" stop-color="#c88658"/>
    </linearGradient>
    <filter id="shadow" x="-20%" y="-20%" width="140%" height="140%">
      <feDropShadow dx="0" dy="14" stdDeviation="12" flood-color="#2e0710" flood-opacity=".32"/>
    </filter>
  </defs>
  <g filter="url(#shadow)">
    <path d="M84 189c16-34 43-51 76-51s60 17 76 51c19 39 24 95 15 168-9 70-39 105-91 105s-82-35-91-105c-9-73-4-129 15-168Z" fill="url(#hoodie)"/>
    <path d="M103 238c-31 10-50 42-61 94l35 17c12-42 26-65 46-78l-20-33Zm114 0c31 10 50 42 61 94l-35 17c-12-42-26-65-46-78l20-33Z" fill="#a92a35"/>
    <path d="M118 447l-18 48h50l11-47h-43Zm84 0 18 48h-50l-11-47h43Z" fill="#30212a"/>
    <path d="M104 201c35 22 78 22 112 0l13 66H91l13-66Z" fill="#fff4f1" opacity=".74"/>
    <path d="M116 68c10-23 78-23 88 0 26 12 43 36 43 65 0 50-34 83-87 83s-87-33-87-83c0-29 17-53 43-65Z" fill="#30212a"/>
    <ellipse cx="160" cy="130" rx="54" ry="52" fill="url(#skin)"/>
    <path d="M103 114c10-31 30-48 57-48s47 17 57 48c-26 10-88 10-114 0Z" fill="#4a2b2e"/>
    <path d="M122 142c18 16 58 16 76 0" fill="none" stroke="#8c5538" stroke-width="6" stroke-linecap="round" opacity=".55"/>
    <path d="M96 232h128v31H96z" fill="#d22f3e"/>
    <path d="M111 220l99 74" stroke="#d22f3e" stroke-width="18" stroke-linecap="round"/>
    <path d="M108 301h104v29H108z" fill="#fff1ed" opacity=".82"/>
    <path d="M95 177c28 29 102 29 130 0l-20 43c-25 18-65 18-90 0l-20-43Z" fill="#d22f3e"/>
    <path d="M225 187l41 28v102l-38 13-18-86z" fill="#5b4530"/>
    <circle cx="238" cy="220" r="16" fill="#f7fcff"/>
    <circle cx="262" cy="244" r="16" fill="#f7fcff"/>
    <circle cx="238" cy="269" r="16" fill="#f7fcff"/>
    <path d="M78 351h164c-7 38-27 70-82 70s-75-32-82-70Z" fill="#ba3844"/>
  </g>
</svg>
