<svg xmlns="http://www.w3.org/2000/svg" width="512" height="256" viewBox="0 0 512 256">
  <defs>
    <linearGradient id="body" x1="86" y1="184" x2="420" y2="58" gradientUnits="userSpaceOnUse">
      <stop stop-color="#15202a"/>
      <stop offset="1" stop-color="#334655"/>
    </linearGradient>
    <linearGradient id="frost" x1="267" y1="56" x2="431" y2="133" gradientUnits="userSpaceOnUse">
      <stop stop-color="#dff8ff"/>
      <stop offset="1" stop-color="#6fbde0"/>
    </linearGradient>
    <filter id="shadow" x="-20%" y="-20%" width="140%" height="140%">
      <feDropShadow dx="0" dy="12" stdDeviation="10" flood-color="#05121d" flood-opacity=".38"/>
    </filter>
  </defs>
  <g filter="url(#shadow)">
    <path d="M103 146c0-22 18-40 40-40h166c24 0 43 19 43 43v13H143c-22 0-40-18-40-40v24Z" fill="url(#body)"/>
    <path d="M325 101h93c19 0 35 16 35 35s-16 35-35 35h-93v-70Z" fill="url(#frost)"/>
    <path d="M425 111h28c20 0 36 16 36 36s-16 36-36 36h-28c15-17 15-55 0-72Z" fill="#ebfbff"/>
    <path d="M90 149h78l-23 71c-5 16-21 24-36 18l-14-5c-13-5-20-20-15-34l10-50Z" fill="#0d1117"/>
    <path d="M188 82h101c15 0 27 12 27 27v25H161v-25c0-15 12-27 27-27Z" fill="#91dff3"/>
    <circle cx="209" cy="70" r="32" fill="#f7fcff"/>
    <circle cx="263" cy="66" r="34" fill="#edf8ff"/>
    <circle cx="237" cy="32" r="29" fill="#ffffff"/>
    <path d="M151 132h150v22H151z" fill="#2f8c6b"/>
    <path d="M151 154h150v11H151z" fill="#74d2b1"/>
    <circle cx="428" cy="146" r="29" fill="#ffffff"/>
    <path d="M404 145c12-9 29-10 45-1" fill="none" stroke="#b7ddeb" stroke-width="7" stroke-linecap="round"/>
  </g>
</svg>
