<svg xmlns="http://www.w3.org/2000/svg" viewBox="0 0 720 1000" role="img">
  <rect width="720" height="1000" rx="34" fill="#f4f9ff"/>
  <rect x="28" y="28" width="664" height="146" rx="28" fill="#12336d"/>
  <text x="58" y="88" fill="#fff" font-family="Arial,sans-serif" font-size="31" font-weight="700">OUTING OPTIONS</text>
  <text x="58" y="130" fill="#bcd8ff" font-family="Arial,sans-serif" font-size="20">Compare the places before you choose</text>
  <g font-family="Arial,sans-serif">
    <rect x="42" y="212" width="636" height="184" rx="26" fill="#fff" stroke="#d4e4f7" stroke-width="3"/>
    <circle cx="114" cy="304" r="51" fill="#f7c873"/><path d="M84 322h60M90 296h48M98 273h32v50H98z" fill="none" stroke="#fff" stroke-width="8" stroke-linecap="round"/>
    <text x="196" y="276" fill="#12336d" font-size="30" font-weight="700">Museum</text>
    <text x="196" y="314" fill="#5d7295" font-size="21">$12 · 30 minutes</text>
    <text x="196" y="350" fill="#1264dc" font-size="19" font-weight="700">Indoor activities</text>
    <rect x="42" y="424" width="636" height="184" rx="26" fill="#fff" stroke="#d4e4f7" stroke-width="3"/>
    <circle cx="114" cy="516" r="51" fill="#8bd487"/><path d="M114 472v88M81 531c22-23 44-23 66 0M86 505c18-17 38-17 56 0" fill="none" stroke="#fff" stroke-width="8" stroke-linecap="round"/>
    <text x="196" y="488" fill="#12336d" font-size="30" font-weight="700">Park</text>
    <text x="196" y="526" fill="#5d7295" font-size="21">$4 · 50 minutes</text>
    <text x="196" y="562" fill="#1264dc" font-size="19" font-weight="700">Outdoor activities</text>
    <rect x="42" y="636" width="636" height="184" rx="26" fill="#fff" stroke="#d4e4f7" stroke-width="3"/>
    <circle cx="114" cy="728" r="51" fill="#8bd4ed"/><path d="M80 756h68M84 708h60v48H84zM100 708v-22h28v22" fill="none" stroke="#fff" stroke-width="8" stroke-linejoin="round"/>
    <text x="196" y="700" fill="#12336d" font-size="30" font-weight="700">Aquarium</text>
    <text x="196" y="738" fill="#5d7295" font-size="21">$18 · 25 minutes</text>
    <text x="196" y="774" fill="#1264dc" font-size="19" font-weight="700">Many things to see</text>
  </g>
  <rect x="42" y="862" width="636" height="78" rx="22" fill="#eaf4ff"/>
  <text x="72" y="910" fill="#1264dc" font-family="Arial,sans-serif" font-size="20" font-weight="700">Compare price, time, and activities.</text>
</svg>
