<svg xmlns="http://www.w3.org/2000/svg" viewBox="0 0 720 1000" role="img">
  <rect width="720" height="1000" rx="34" fill="#f4f9ff"/>
  <rect x="28" y="28" width="664" height="150" rx="28" fill="#1264dc"/>
  <circle cx="92" cy="103" r="38" fill="#fff" opacity=".18"/>
  <path d="M77 105h30M82 91c7-13 18-13 25 0M86 105v16m18-16v16" fill="none" stroke="#fff" stroke-width="7" stroke-linecap="round"/>
  <text x="154" y="92" fill="#fff" font-family="Arial,sans-serif" font-size="34" font-weight="700">CAFÉ MENU</text>
  <text x="154" y="130" fill="#dcecff" font-family="Arial,sans-serif" font-size="20">Lunch · order at the counter</text>
  <text x="56" y="232" fill="#12336d" font-family="Arial,sans-serif" font-size="20" font-weight="700" letter-spacing="2">TODAY'S CHOICES</text>
  <g font-family="Arial,sans-serif">
    <rect x="42" y="264" width="636" height="150" rx="24" fill="#fff" stroke="#d4e4f7" stroke-width="3"/>
    <rect x="70" y="295" width="92" height="92" rx="20" fill="#f7c873"/>
    <path d="M91 337h50M103 317c15 12 25 12 39 0M103 358c15 12 25 12 39 0" fill="none" stroke="#fff" stroke-width="9" stroke-linecap="round"/>
    <text x="190" y="318" fill="#12336d" font-size="30" font-weight="700">Sandwich</text>
    <text x="190" y="354" fill="#5d7295" font-size="21">Fresh bread · $8</text>
    <text x="190" y="385" fill="#5d7295" font-size="18">Ask about the filling</text>
    <text x="610" y="342" fill="#1264dc" font-size="31" font-weight="700" text-anchor="end">$8</text>

    <rect x="42" y="440" width="636" height="150" rx="24" fill="#fff" stroke="#d4e4f7" stroke-width="3"/>
    <rect x="70" y="471" width="92" height="92" rx="20" fill="#f28e78"/>
    <path d="M91 514c4-19 42-19 50 0M98 536h36M91 548h50" fill="none" stroke="#fff" stroke-width="8" stroke-linecap="round"/>
    <text x="190" y="494" fill="#12336d" font-size="30" font-weight="700">Soup</text>
    <text x="190" y="530" fill="#5d7295" font-size="21">Warm bowl · $5</text>
    <text x="190" y="561" fill="#d85d55" font-size="18" font-weight="700">Contains milk</text>
    <text x="610" y="518" fill="#1264dc" font-size="31" font-weight="700" text-anchor="end">$5</text>

    <rect x="42" y="616" width="636" height="150" rx="24" fill="#fff" stroke="#d4e4f7" stroke-width="3"/>
    <rect x="70" y="647" width="92" height="92" rx="20" fill="#8bd4ed"/>
    <path d="M96 677h40v43H96zM103 666h26M106 687h20M106 704h20" fill="none" stroke="#fff" stroke-width="7" stroke-linecap="round" stroke-linejoin="round"/>
    <text x="190" y="670" fill="#12336d" font-size="30" font-weight="700">Orange juice</text>
    <text x="190" y="706" fill="#5d7295" font-size="21">Cold drink · $3</text>
    <text x="610" y="694" fill="#1264dc" font-size="31" font-weight="700" text-anchor="end">$3</text>
  </g>
  <rect x="42" y="824" width="636" height="112" rx="24" fill="#eaf4ff"/>
  <text x="70" y="868" fill="#1264dc" font-family="Arial,sans-serif" font-size="21" font-weight="700">ORDER NOTE</text>
  <text x="70" y="902" fill="#42648e" font-family="Arial,sans-serif" font-size="20">Choose a meal, ask one question, then confirm.</text>
</svg>
